<?xml version="1.0" encoding="UTF-8"?>
<svg id="Layer_1" data-name="Layer 1" xmlns="http://www.w3.org/2000/svg" viewBox="0 0 1000 1000">
  <g>
    <path d="M248.37,427.85v35.6c0,17.07-2.98,30.31-8.94,39.73-5.96,9.44-16.29,14.16-31,14.16-9.29,0-16.33-2.22-21.12-6.66-4.78-4.44-7.93-10.33-9.46-17.68-1.52-7.35-2.28-16.57-2.28-27.67v-7.69l-19.32,7.9c.17,12.44,1.19,21.93,3.09,28.5,2.07,7.21,6.16,13.66,12.27,19.35,8.05,7.48,19.69,11.23,34.95,11.23,8.47,0,16.06-1.73,22.78-5.2,6.72-3.46,11.82-8.18,15.3-14.14,3.04-5.13,5.23-11.26,6.55-18.4,1.31-7.14,1.97-15.72,1.97-25.69v-35.29l-4.78,1.97Z"/>
    <path d="M409.8,509.02c-2.08,2.78-3.92,4.78-5.52,6.03-1.59,1.25-3.57,1.87-5.92,1.87-2.63,0-4.72-1.25-6.24-3.75-1.53-2.49-2.99-6.93-4.36-13.32l-5.2-21.21c-1.95-8.74-4.99-15.11-9.16-19.14-4.16-4.02-10.81-6.8-19.96-8.32l-2.49-.42c9.7-1.52,17.58-4.47,23.61-8.83,6.03-4.38,10.33-9.29,12.9-14.77,2.56-5.48,3.84-10.92,3.84-16.33,0-10.68-4.33-19.39-13-26.11-3-2.33-6.46-4.27-10.37-5.78l-10.6,4.35c1.93,1.11,3.62,2.46,5.06,4.02,5.41,5.83,8.11,14.43,8.11,25.8s-2.57,19.28-7.69,25.39c-5.14,6.1-14.56,9.15-28.29,9.15h-13.95v-49.33l-19.35,7.92v93.42c0,5.27-.41,9.08-1.25,11.44-.83,2.36-2.39,3.95-4.68,4.78-2.29.83-5.92,1.38-10.92,1.66v4.16c5.82-.42,14.69-.63,26.62-.63,11.23,0,20.04.21,26.43.63v-4.16c-4.99-.29-8.64-.84-10.92-1.66-2.29-.84-3.85-2.42-4.68-4.78-.84-2.36-1.26-6.17-1.26-11.44v-47.86h19.77c5.27,0,9.36,1.18,12.27,3.54,2.92,2.36,5.1,5.48,6.55,9.36,1.46,3.89,3.01,9.44,4.68,16.65l4.59,20.8c1.8,8.32,4.54,14.14,8.21,17.47,3.68,3.33,8.36,4.99,14.05,4.99,5.27,0,9.49-1.04,12.69-3.12,3.19-2.08,6.37-5.48,9.57-10.2l-3.12-2.28Z"/>
    <path d="M545.33,406.35c-5.48-11.31-13.17-19.94-23.08-25.9-9.92-5.96-21.47-8.95-34.64-8.95s-24.16,3.26-34.21,9.78c-10.07,6.53-17.89,15.68-23.52,27.46-5.61,11.8-8.43,25.31-8.43,40.57s2.74,29.17,8.22,40.46c5.48,11.3,13.17,19.94,23.1,25.9,9.91,5.96,21.46,8.94,34.64,8.94s24.16-3.25,34.21-9.78c10.05-6.51,17.89-15.66,23.52-27.46,5.61-11.78,8.42-25.31,8.42-40.57s-2.74-29.15-8.22-40.45ZM527.24,485.71c-3.68,11.1-8.89,19.74-15.61,25.9-6.72,6.17-14.52,9.25-23.4,9.25s-16.37-2.98-23.31-8.94c-6.93-5.96-12.44-14.42-16.53-25.38-4.09-10.96-6.13-23.65-6.13-38.08s1.84-26.96,5.51-38.07c3.67-11.09,8.87-19.73,15.6-25.9,6.74-6.16,14.54-9.25,23.41-9.25s16.36,2.99,23.29,8.94c6.93,5.96,12.45,14.43,16.54,25.39s6.13,23.65,6.13,38.07-1.84,26.98-5.51,38.07Z"/>
    <path d="M688.56,471.78c-1.1,9.15-2.28,15.95-3.53,20.38-1.26,4.44-3.26,8.6-6.04,12.49-3.74,5.27-8.87,9.21-15.39,11.85-6.53,2.63-13.25,3.96-20.19,3.96-9.01,0-17.09-2.82-24.22-8.43-7.14-5.62-12.73-13.83-16.75-24.66-4.02-10.81-6.03-23.78-6.03-38.9s1.87-27.76,5.61-38.79c3.75-11.04,8.98-19.53,15.72-25.5,6.71-5.95,14.59-8.94,23.61-8.94,7.48,0,14.46,1.35,20.91,4.05,6.45,2.71,11.74,6.76,15.91,12.18,2.91,3.6,4.99,7.38,6.24,11.34,1.25,3.95,2.63,10.43,4.16,19.45h4.78c0-22.89.29-38.84.84-47.86h-4.78c-.84,8.32-2.63,12.49-5.41,12.49-1.11,0-2.42-.63-3.95-1.87-5.56-4.3-11.23-7.63-17.07-9.99-5.82-2.36-12.9-3.54-21.21-3.54-12.77,0-24.17,3.26-34.23,9.78-10.05,6.53-17.89,15.68-23.52,27.46-5.61,11.8-8.42,25.31-8.42,40.57s2.73,29.17,8.22,40.46c5.47,11.3,13.17,19.94,23.08,25.9,9.92,5.96,21.46,8.94,34.64,8.94,8.04,0,14.9-1.14,20.59-3.43,5.69-2.28,11.65-5.65,17.89-10.08,1.8-1.11,3.25-1.66,4.36-1.66,1.39,0,2.46.93,3.22,2.81s1.35,5.02,1.77,9.46h4.78c-.55-9.42-.84-26.07-.84-49.93h-4.78Z"/>
    <path d="M833.24,513.07c-2.84-2.01-5.44-4.75-7.8-8.22l-48.26-67.61,33.91-43.48c3.75-4.85,7.63-8.42,11.65-10.71,4.01-2.28,8.32-3.78,12.9-4.47v-4.17c-4.17.42-10.07.63-17.68.63-8.05,0-16.02-.21-23.92-.63v4.17c8.59.14,12.9,2.63,12.9,7.48,0,4.57-3.54,11.23-10.62,19.98l-19.96,25.38c-5.69,7.35-13.59,11.23-23.73,11.65v-46.6c0-5.27.42-9.08,1.26-11.44.83-2.36,2.39-3.96,4.68-4.78,2.28-.84,5.92-1.39,10.92-1.66v-4.17c-6.53.42-15.32.63-26.43.63-11.93,0-20.8-.21-26.62-.63v4.17c4.99.28,8.63.83,10.92,1.66,2.29.83,3.85,2.42,4.68,4.78.84,2.36,1.25,6.17,1.25,11.44v103.19c0,5.27-.41,9.08-1.25,11.44-.83,2.36-2.39,3.95-4.68,4.78-2.29.83-5.92,1.38-10.92,1.66v4.16c5.82-.42,14.69-.63,26.62-.63,11.23,0,20.04.21,26.43.63v-4.16c-4.99-.29-8.64-.84-10.92-1.66-2.29-.84-3.85-2.42-4.68-4.78-.84-2.36-1.26-6.17-1.26-11.44v-52.43c4.99.29,8.87,1.35,11.65,3.22s6.17,5.86,10.2,11.97l30.37,45.76c1.38,1.95,2.08,3.62,2.08,4.99s-.77,2.43-2.29,3.12c-1.53.69-3.96,1.11-7.27,1.26v4.16c6.79-.42,13.93-.63,21.42-.63,9.99,0,18.31.21,24.97.63v-4.16c-4.17-.97-7.67-2.46-10.51-4.48Z"/>
  </g>
  <g>
    <path d="M278.44,604.43v-36.7h3.88v33.35h20.55v3.36h-24.43Z"/>
    <path d="M319.5,604.7c-2.34,0-4.39-.44-6.13-1.31-1.75-.87-3.1-2.18-4.06-3.93-.96-1.75-1.44-3.93-1.44-6.55v-15.99h3.72v15.57c0,2.94.73,5.15,2.18,6.63,1.45,1.49,3.49,2.23,6.11,2.23,1.92,0,3.59-.39,5.01-1.18,1.42-.79,2.5-1.93,3.25-3.43.75-1.5,1.13-3.3,1.13-5.4v-14.42h3.72v27.53h-3.57v-7.55l.58,1.36c-.87,2.03-2.23,3.61-4.06,4.74-1.83,1.14-3.98,1.7-6.42,1.7Z"/>
    <path d="M339.16,604.43l11.64-15.1-.05,1.83-11.06-14.26h4.19l9.07,11.8-1.57-.05,9.07-11.74h4.09l-11.17,14.42.05-1.99,11.74,15.1h-4.25l-9.59-12.58,1.47.21-9.44,12.37h-4.19Z"/>
    <path d="M382.21,604.7c-2.34,0-4.39-.44-6.13-1.31-1.75-.87-3.1-2.18-4.06-3.93-.96-1.75-1.44-3.93-1.44-6.55v-15.99h3.72v15.57c0,2.94.73,5.15,2.18,6.63,1.45,1.49,3.49,2.23,6.11,2.23,1.92,0,3.59-.39,5.01-1.18,1.42-.79,2.5-1.93,3.25-3.43.75-1.5,1.13-3.3,1.13-5.4v-14.42h3.72v27.53h-3.57v-7.55l.58,1.36c-.87,2.03-2.23,3.61-4.06,4.74-1.83,1.14-3.98,1.7-6.42,1.7Z"/>
    <path d="M406.06,604.43v-27.53h3.57v7.5l-.37-1.31c.77-2.1,2.06-3.7,3.88-4.8,1.82-1.1,4.07-1.65,6.76-1.65v3.62c-.14,0-.28,0-.42-.03-.14-.02-.28-.03-.42-.03-2.9,0-5.17.88-6.82,2.65-1.64,1.77-2.46,4.27-2.46,7.53v14.05h-3.72Z"/>
    <path d="M426.98,614.87c-1.29,0-2.53-.21-3.7-.63-1.17-.42-2.18-1.05-3.02-1.89l1.73-2.78c.7.66,1.46,1.18,2.28,1.55.82.37,1.74.55,2.75.55,1.22,0,2.28-.34,3.17-1.02.89-.68,1.74-1.88,2.54-3.59l1.78-4.04.42-.58,11.33-25.53h3.67l-13.79,30.83c-.77,1.78-1.62,3.2-2.54,4.25-.93,1.05-1.93,1.79-3.02,2.23-1.08.44-2.29.65-3.62.65ZM434.32,605.22l-12.69-28.31h3.88l11.22,25.27-2.41,3.04Z"/>
    <path d="M468.93,604.43v-38.9h3.72v19.51l-.52,5.56.37,5.56v8.28h-3.57ZM483.14,604.7c-2.41,0-4.58-.55-6.5-1.65-1.92-1.1-3.44-2.7-4.56-4.8-1.12-2.1-1.68-4.63-1.68-7.6s.57-5.55,1.7-7.63c1.13-2.08,2.67-3.66,4.59-4.74,1.92-1.08,4.07-1.63,6.45-1.63,2.62,0,4.97.59,7.05,1.76,2.08,1.17,3.71,2.8,4.9,4.9,1.19,2.1,1.78,4.54,1.78,7.34s-.59,5.2-1.78,7.31c-1.19,2.12-2.82,3.77-4.9,4.96-2.08,1.19-4.43,1.78-7.05,1.78ZM482.88,601.39c1.96,0,3.71-.45,5.24-1.34,1.54-.89,2.76-2.15,3.67-3.78s1.36-3.5,1.36-5.64-.45-4.05-1.36-5.66-2.13-2.86-3.67-3.75c-1.54-.89-3.29-1.34-5.24-1.34s-3.71.45-5.27,1.34c-1.56.89-2.78,2.14-3.67,3.75-.89,1.61-1.34,3.5-1.34,5.66s.45,4.01,1.34,5.64c.89,1.62,2.11,2.88,3.67,3.78,1.55.89,3.31,1.34,5.27,1.34Z"/>
    <path d="M515.7,604.7c-2.66,0-5.04-.6-7.16-1.81-2.12-1.21-3.78-2.87-5.01-4.98-1.22-2.12-1.83-4.54-1.83-7.26s.61-5.19,1.83-7.29c1.22-2.1,2.88-3.74,4.98-4.93,2.1-1.19,4.49-1.78,7.18-1.78s5.15.6,7.26,1.78c2.11,1.19,3.78,2.83,4.98,4.93,1.21,2.1,1.81,4.53,1.81,7.29s-.6,5.15-1.81,7.26-2.88,3.78-5.01,4.98c-2.13,1.21-4.54,1.81-7.24,1.81ZM515.7,601.39c1.99,0,3.76-.45,5.3-1.34,1.54-.89,2.75-2.15,3.64-3.78.89-1.62,1.34-3.5,1.34-5.64s-.45-4.05-1.34-5.66c-.89-1.61-2.11-2.86-3.64-3.75-1.54-.89-3.29-1.34-5.24-1.34s-3.71.45-5.24,1.34c-1.54.89-2.76,2.14-3.67,3.75s-1.36,3.5-1.36,5.66.45,4.01,1.36,5.64,2.13,2.88,3.67,3.78c1.54.89,3.27,1.34,5.19,1.34Z"/>
    <path d="M548.73,604.7c-2.34,0-4.39-.44-6.13-1.31-1.75-.87-3.1-2.18-4.06-3.93-.96-1.75-1.44-3.93-1.44-6.55v-15.99h3.72v15.57c0,2.94.72,5.15,2.18,6.63,1.45,1.49,3.49,2.23,6.11,2.23,1.92,0,3.59-.39,5.01-1.18,1.42-.79,2.5-1.93,3.25-3.43s1.13-3.3,1.13-5.4v-14.42h3.72v27.53h-3.57v-7.55l.58,1.36c-.87,2.03-2.23,3.61-4.06,4.74-1.83,1.14-3.98,1.7-6.42,1.7Z"/>
    <path d="M568.29,580v-3.09h17.04v3.09h-17.04ZM581.29,604.7c-2.59,0-4.58-.7-5.98-2.1-1.4-1.4-2.1-3.37-2.1-5.93v-25.85h3.72v25.64c0,1.61.41,2.85,1.23,3.72s2,1.31,3.54,1.31c1.64,0,3.01-.47,4.09-1.42l1.31,2.67c-.73.66-1.62,1.15-2.65,1.47s-2.09.47-3.17.47Z"/>
    <path d="M595.76,570.83c-.77,0-1.42-.26-1.94-.79-.52-.53-.79-1.15-.79-1.89s.26-1.35.79-1.86c.52-.51,1.17-.76,1.94-.76s1.42.25,1.94.73c.52.49.79,1.1.79,1.84s-.25,1.41-.76,1.94c-.51.52-1.16.79-1.97.79ZM593.87,604.43v-27.53h3.72v27.53h-3.72Z"/>
    <path d="M618.94,604.7c-2.62,0-4.97-.59-7.05-1.78-2.08-1.19-3.71-2.83-4.9-4.93s-1.78-4.54-1.78-7.34.59-5.2,1.78-7.31,2.82-3.76,4.9-4.93c2.08-1.17,4.43-1.76,7.05-1.76,2.45,0,4.62.54,6.53,1.63,1.91,1.08,3.42,2.66,4.54,4.74,1.12,2.08,1.68,4.62,1.68,7.63s-.57,5.55-1.7,7.63-2.66,3.67-4.56,4.77-4.06,1.65-6.47,1.65ZM619.2,601.39c1.96,0,3.71-.45,5.27-1.34,1.55-.89,2.78-2.15,3.67-3.78.89-1.62,1.34-3.5,1.34-5.64s-.45-4-1.34-5.61c-.89-1.61-2.12-2.87-3.67-3.78-1.56-.91-3.31-1.36-5.27-1.36s-3.65.46-5.19,1.36c-1.54.91-2.76,2.17-3.67,3.78s-1.36,3.48-1.36,5.61.45,4.01,1.36,5.64,2.13,2.88,3.67,3.78c1.54.89,3.27,1.34,5.19,1.34ZM629.42,614.61v-18.35l.52-5.56-.37-5.51v-8.28h3.57v37.7h-3.72Z"/>
    <path d="M654.9,604.7c-2.34,0-4.39-.44-6.13-1.31-1.75-.87-3.1-2.18-4.06-3.93-.96-1.75-1.44-3.93-1.44-6.55v-15.99h3.72v15.57c0,2.94.72,5.15,2.18,6.63,1.45,1.49,3.49,2.23,6.11,2.23,1.92,0,3.59-.39,5.01-1.18,1.42-.79,2.5-1.93,3.25-3.43s1.13-3.3,1.13-5.4v-14.42h3.72v27.53h-3.57v-7.55l.58,1.36c-.87,2.03-2.23,3.61-4.06,4.74-1.83,1.14-3.98,1.7-6.42,1.7Z"/>
    <path d="M690.45,604.7c-2.87,0-5.38-.6-7.55-1.81-2.17-1.21-3.86-2.87-5.09-4.98-1.22-2.12-1.83-4.54-1.83-7.26s.58-5.14,1.76-7.24c1.17-2.1,2.78-3.75,4.82-4.96,2.04-1.21,4.34-1.81,6.89-1.81s4.88.59,6.89,1.76c2.01,1.17,3.59,2.81,4.75,4.93,1.15,2.12,1.73,4.55,1.73,7.31,0,.18,0,.36-.03.55s-.03.39-.03.6h-23.96v-2.78h21.97l-1.47,1.1c0-1.99-.43-3.77-1.28-5.32-.86-1.55-2.02-2.77-3.49-3.64-1.47-.87-3.16-1.31-5.09-1.31s-3.58.44-5.09,1.31c-1.5.88-2.67,2.1-3.51,3.67-.84,1.57-1.26,3.37-1.26,5.4v.58c0,2.1.46,3.94,1.39,5.53.93,1.59,2.22,2.83,3.88,3.72,1.66.89,3.56,1.34,5.69,1.34,1.68,0,3.24-.3,4.69-.89,1.45-.59,2.7-1.5,3.75-2.73l2.1,2.41c-1.22,1.47-2.75,2.59-4.59,3.36-1.84.77-3.85,1.15-6.06,1.15Z"/>
  </g>
</svg>